<svg xmlns="http://www.w3.org/2000/svg" xmlns:xlink="http://www.w3.org/1999/xlink" viewBox="0 0 290.17 279.81"><defs><style>.cls-1{opacity:0.2;}.cls-2{fill:#f1f2f2;}.cls-3{fill:#27aae1;}.cls-4{fill:url(#linear-gradient);}.cls-5{fill:#29266b;}.cls-6{fill:#bfe6fa;}.cls-7{fill:#ddf2fb;}.cls-8{fill:#4471b7;}.cls-9{fill:#b4835d;}.cls-10{fill:#8b5e3c;}</style><linearGradient id="linear-gradient" x1="136.38" y1="92.62" x2="161.55" y2="220.06" gradientUnits="userSpaceOnUse"><stop offset="0.15" stop-color="#4471b7"/><stop offset="0.46" stop-color="#395197"/><stop offset="0.82" stop-color="#29266b"/></linearGradient></defs><g id="Layer_2" data-name="Layer 2"><g id="Layer_3" data-name="Layer 3"><g id="mpPot"><g class="cls-1"><path class="cls-2" d="M145.08,277.81a14.05,14.05,0,0,1-13.62-11h-.22l-8.55-55.58A76.22,76.22,0,0,1,75.2,167.44a28.05,28.05,0,0,1-6.76,12.05c-4.79,4.88-11.18,7.36-19,7.36-11.12,0-21.25-7.75-24.62-18.85-1.38-4.56-1.37-12,.44-16.83A39.24,39.24,0,0,1,2,115.16C2,93.6,19.72,75.88,41.5,75.64h1.63c12,0,18.78,1.52,29.47,4.94a14,14,0,0,0,4.33.66c6.16,0,12.66-3.53,18.4-6.64,1-.56,2-1.09,3-1.59,1.65-.87,3.26-1.8,4.95-2.79,5.65-3.28,11.48-6.68,19.36-7.68,3.28-9.92,3.21-14,3-15.33h-6.86a13.34,13.34,0,1,1,0-26.68h52.75a13.34,13.34,0,0,1,0,26.68H164.6c-.24,1.38-.31,5.41,3,15.33,7.88,1,13.71,4.4,19.36,7.68,1.69,1,3.3,1.92,4.95,2.79,1,.5,1.94,1,3,1.59,5.74,3.11,12.24,6.64,18.4,6.64a13.9,13.9,0,0,0,4.32-.66c10.7-3.42,17.5-4.94,29.48-4.94h1.63c21.78.24,39.5,18,39.5,39.52a39.24,39.24,0,0,1-23.25,36c1.81,4.8,1.82,12.27.44,16.83-3.37,11.1-13.5,18.85-24.62,18.85-7.83,0-14.22-2.48-19-7.36A28.05,28.05,0,0,1,215,167.44a76.21,76.21,0,0,1-47.5,43.83l-8.54,55.58h-.22A14.05,14.05,0,0,1,145.08,277.81Zm97.44-125.88a18.66,18.66,0,0,0-4.29.38,5.55,5.55,0,0,0-3.68,3.08,6.87,6.87,0,0,0-.21,5.35,5.93,5.93,0,0,0,4.58,3c4.23,0,5.72-4.79,5.78-5,.22-.73.39-1.49.57-2.3s.38-1.68.63-2.53a14,14,0,0,1,.69-1.86h-.06C245.2,152,243.82,151.93,242.52,151.93Zm-199,.12a14.08,14.08,0,0,1,.7,1.86c.25.85.44,1.71.63,2.53s.35,1.57.57,2.3c.06.2,1.55,5,5.78,5a5.94,5.94,0,0,0,4.58-3c.67-1.22.57-3.57-.21-5.35a5.55,5.55,0,0,0-3.68-3.08,18.66,18.66,0,0,0-4.29-.38c-1.3,0-2.68.06-4,.12Zm6-23.94c4.41,0,10.35.44,15.63,3.57-.74-3.59-1.66-8.15-2.16-11.11a21.62,21.62,0,0,0-7.76-13.39,18.3,18.3,0,0,0-11.42-4.06c-4.42,0-8.3,1.63-10.63,4.47A10.3,10.3,0,0,0,31.63,119c2.57,5.45,9.19,9.1,16.46,9.1Zm196.82-25a18.3,18.3,0,0,0-11.42,4.06,21.57,21.57,0,0,0-7.76,13.39c-.5,3-1.42,7.52-2.17,11.11,5.29-3.13,11.23-3.57,15.64-3.57h1.44c7.27,0,13.88-3.66,16.46-9.1A10.3,10.3,0,0,0,257,107.59C254.64,104.75,250.77,103.12,246.35,103.12Z"/><path class="cls-3" d="M171.46,22.52A11.34,11.34,0,0,1,182.8,33.86h0A11.34,11.34,0,0,1,171.46,45.2h-8.1s-3.21,1.84,2.73,19.18c10.47,1,17.38,6.47,24.86,10.39,6.42,3.36,14.47,8.46,22.29,8.46a16.14,16.14,0,0,0,4.94-.75c10.31-3.3,16.89-4.85,28.86-4.85h1.61a37.52,37.52,0,0,1,13.56,72.5c2.48,3.91,2.68,12.52,1.23,17.28-3.16,10.42-12.79,17.43-22.7,17.43-19.89,0-25.11-17.15-25-25.87a74.77,74.77,0,0,1-50.1,50.75l-8.47,55.12H157a11.95,11.95,0,0,1-23.81,0H133l-8.47-55.12A74.77,74.77,0,0,1,74.38,159c.16,8.72-5.06,25.87-24.95,25.87-9.91,0-19.54-7-22.71-17.43-1.44-4.76-1.24-13.37,1.24-17.28a37.52,37.52,0,0,1,13.56-72.5h1.61c12,0,18.55,1.55,28.86,4.85a16.14,16.14,0,0,0,4.94.75c7.82,0,15.87-5.1,22.29-8.46,7.48-3.92,14.39-9.44,24.86-10.39C130,47,126.81,45.2,126.81,45.2h-8.1a11.34,11.34,0,0,1-11.34-11.34h0a11.34,11.34,0,0,1,11.34-11.34h52.75m50.45,114.17c5.5-5.83,13.09-6.58,18.73-6.58h1.44c15.11,0,24.79-13.66,16.44-23.8-2.77-3.37-7.31-5.2-12.17-5.2a20.29,20.29,0,0,0-12.68,4.51,23.49,23.49,0,0,0-8.47,14.6c-.92,5.41-3.29,16.46-3.29,16.46M48.09,130.12h1.44c5.64,0,13.23.75,18.73,6.58,0,0-2.37-11-3.29-16.46a23.46,23.46,0,0,0-8.48-14.6,20.24,20.24,0,0,0-12.67-4.51c-4.86,0-9.4,1.83-12.17,5.2-8.35,10.14,1.33,23.8,16.44,23.8m190.83,35.61c4.55,0,7-4,7.7-6.41.47-1.58.72-3.26,1.2-4.84.52-1.74,1.28-3.51,3.6-4.34-.36,0-.74,0-1.13,0-2.35,0-5.15-.23-7.77-.23a20.56,20.56,0,0,0-4.76.44,7.55,7.55,0,0,0-5,4.21c-.91,2.07-1.22,5.13-.13,7.12a7.87,7.87,0,0,0,6.33,4m-199-15.57c-.39,0-.77,0-1.14,0,2.33.83,3.09,2.6,3.61,4.34.47,1.58.73,3.26,1.2,4.84.72,2.37,3.15,6.41,7.7,6.41a7.87,7.87,0,0,0,6.33-4c1.09-2,.78-5-.13-7.12a7.55,7.55,0,0,0-5-4.21,20.62,20.62,0,0,0-4.76-.44c-2.62,0-5.43.23-7.77.23M171.46,18.52H118.71a15.34,15.34,0,1,0,0,30.68h5c-.09,1.85-.61,5.34-2.59,11.53-7.68,1.26-13.58,4.69-18.84,7.75-1.68,1-3.26,1.9-4.88,2.75-1,.5-2,1-3,1.6-5.53,3-11.8,6.4-17.45,6.4a11.71,11.71,0,0,1-3.7-.56c-10.92-3.49-17.85-5-30.1-5H41.47a41.92,41.92,0,0,0-29.3,12.24,41.39,41.39,0,0,0-4.73,53,41.45,41.45,0,0,0,15.38,13.35,33,33,0,0,0,.08,16.36c3.62,11.93,14.53,20.27,26.53,20.27,8.38,0,15.26-2.68,20.44-8a28.38,28.38,0,0,0,5.54-8.15,78.76,78.76,0,0,0,45.49,40l8.1,52.67.52,3.39h.42a15.94,15.94,0,0,0,30.29,0h.42l.52-3.39,8.09-52.67a78.74,78.74,0,0,0,45.5-40,28.38,28.38,0,0,0,5.54,8.15c5.18,5.28,12.06,8,20.44,8,12,0,22.91-8.34,26.53-20.27a33,33,0,0,0,.08-16.36,41.51,41.51,0,0,0,22.82-37.06A41,41,0,0,0,278,85.88a41.93,41.93,0,0,0-29.31-12.24H247c-12.25,0-19.18,1.55-30.08,5a11.92,11.92,0,0,1-3.72.56c-5.65,0-11.92-3.4-17.45-6.4-1-.56-2-1.1-3-1.6-1.61-.85-3.19-1.77-4.87-2.75-5.27-3.06-11.16-6.49-18.84-7.75-2-6.19-2.5-9.68-2.59-11.53h5a15.34,15.34,0,0,0,0-30.68Zm56.31,109.61c.53-2.61,1-5.27,1.38-7.23a19.25,19.25,0,0,1,7-12.16,16.22,16.22,0,0,1,10.16-3.62c3.76,0,7.16,1.4,9.08,3.74a8.26,8.26,0,0,1,1.3,9.3c-1.87,4-7.13,8-14.65,8h-1.44a36.18,36.18,0,0,0-12.87,2Zm-179.68-2c-7.52,0-12.78-4-14.65-8a8.27,8.27,0,0,1,1.29-9.3c1.93-2.34,5.33-3.74,9.09-3.74A16.24,16.24,0,0,1,54,108.74a19.34,19.34,0,0,1,7,12.16c.34,2,.85,4.62,1.38,7.23a36.25,36.25,0,0,0-12.87-2H48.09Zm190.83,35.61a4,4,0,0,1-2.83-1.95,5.19,5.19,0,0,1,.29-3.59,3.57,3.57,0,0,1,2.32-1.94,17,17,0,0,1,3.82-.32c.42,0,.85,0,1.29,0-.19.7-.34,1.39-.49,2.06s-.33,1.5-.53,2.15c0,0-1.11,3.57-3.87,3.57ZM46.36,154c.44,0,.87,0,1.29,0a17,17,0,0,1,3.82.32,3.57,3.57,0,0,1,2.32,1.94,5.12,5.12,0,0,1,.28,3.59,4,4,0,0,1-2.82,1.95c-2.76,0-3.86-3.53-3.87-3.57-.2-.65-.36-1.38-.53-2.15s-.3-1.36-.49-2.06Z"/></g><g id="potFill"><path class="cls-4" d="M210,136.69a64.77,64.77,0,0,0-21.77-48.5H101.9A64.95,64.95,0,1,0,210,136.69Z"/><ellipse class="cls-5" cx="145.01" cy="88.19" rx="43.12" ry="2.9"/><ellipse class="cls-6" cx="106.32" cy="120.9" rx="10.48" ry="4.99" transform="translate(-42.49 182.36) rotate(-71.11)"/><path class="cls-7" d="M97.22,157.19a53.88,53.88,0,0,1,.93-43.43A50.63,50.63,0,0,1,104.93,103a2.58,2.58,0,0,0,0-3.54,2.54,2.54,0,0,0-3.54,0,59.1,59.1,0,0,0-12.63,46,53.88,53.88,0,0,0,3.64,13.05,2.58,2.58,0,0,0,3.07,1.74,2.5,2.5,0,0,0,1.75-3.07Z"/><path class="cls-8" d="M197.14,132.47c.74,10.49-.56,21.63-5.35,31.11S178,179.93,168.57,184.7a51.17,51.17,0,0,1-17.43,5.56,2.57,2.57,0,0,0-2.5,2.5,2.52,2.52,0,0,0,2.5,2.5c12.05-1.29,23.54-7.08,32.88-14.64a45.28,45.28,0,0,0,11-12.54A53.75,53.75,0,0,0,201,151.74a73.68,73.68,0,0,0,1.18-19.27,2.57,2.57,0,0,0-2.5-2.5,2.52,2.52,0,0,0-2.5,2.5Z"/></g><g id="Cork"><ellipse class="cls-9" cx="145.08" cy="66.03" rx="13.52" ry="2.37"/><polygon class="cls-9" points="158.61 66.03 131.56 66.03 129.47 2.08 160.7 2.08 158.61 66.03"/><ellipse class="cls-10" cx="145.08" cy="2.08" rx="15.62" ry="2.08"/></g></g></g></g></svg>