<svg xmlns="http://www.w3.org/2000/svg" viewBox="0 0 290.17 279.81"><defs><style>.cls-1{opacity:0.2;}.cls-2{fill:#f1f2f2;}.cls-3{fill:#27aae1;}.cls-4{fill:#b4835d;}.cls-5{fill:#8b5e3c;}.cls-6{fill:#8cb3bd;}.cls-7{fill:#fff;}</style></defs><g id="Layer_2" data-name="Layer 2"><g id="Layer_2-2" data-name="Layer 2"><g class="cls-1"><path class="cls-2" d="M145.08,277.81a14.05,14.05,0,0,1-13.62-11h-.22l-8.55-55.58A76.22,76.22,0,0,1,75.2,167.44a28.05,28.05,0,0,1-6.76,12.05c-4.79,4.88-11.18,7.36-19,7.36-11.12,0-21.25-7.75-24.62-18.85-1.38-4.56-1.37-12,.44-16.83A39.24,39.24,0,0,1,2,115.16C2,93.6,19.72,75.88,41.5,75.64h1.63c12,0,18.78,1.52,29.47,4.94a14,14,0,0,0,4.33.66c6.16,0,12.66-3.53,18.4-6.64,1-.56,2-1.09,3-1.59,1.65-.87,3.26-1.8,4.95-2.79,5.65-3.28,11.48-6.68,19.36-7.68,3.28-9.92,3.21-14,3-15.33h-6.86a13.34,13.34,0,1,1,0-26.68h52.75a13.34,13.34,0,0,1,0,26.68H164.6c-.24,1.38-.31,5.41,3,15.33,7.88,1,13.71,4.4,19.36,7.68,1.69,1,3.3,1.92,4.95,2.79,1,.5,1.94,1,3,1.59,5.74,3.11,12.24,6.64,18.4,6.64a13.9,13.9,0,0,0,4.32-.66c10.7-3.42,17.5-4.94,29.48-4.94h1.63c21.78.24,39.5,18,39.5,39.52a39.24,39.24,0,0,1-23.25,36c1.81,4.8,1.82,12.27.44,16.83-3.37,11.1-13.5,18.85-24.62,18.85-7.83,0-14.22-2.48-19-7.36A28.05,28.05,0,0,1,215,167.44a76.21,76.21,0,0,1-47.5,43.83l-8.54,55.58h-.22A14.05,14.05,0,0,1,145.08,277.81Zm97.44-125.88a18.66,18.66,0,0,0-4.29.38,5.55,5.55,0,0,0-3.68,3.08,6.87,6.87,0,0,0-.21,5.35,5.93,5.93,0,0,0,4.58,3c4.23,0,5.72-4.79,5.78-5,.22-.73.39-1.49.57-2.3s.38-1.68.63-2.53a14,14,0,0,1,.69-1.86h-.06C245.2,152,243.82,151.93,242.52,151.93Zm-199,.12a14.08,14.08,0,0,1,.7,1.86c.25.85.44,1.71.63,2.53s.35,1.57.57,2.3c.06.2,1.55,5,5.78,5a5.94,5.94,0,0,0,4.58-3c.67-1.22.57-3.57-.21-5.35a5.55,5.55,0,0,0-3.68-3.08,18.66,18.66,0,0,0-4.29-.38c-1.3,0-2.68.06-4,.12Zm202.78-48.93a18.3,18.3,0,0,0-11.42,4.06,21.57,21.57,0,0,0-7.76,13.39c-.5,3-1.42,7.52-2.17,11.11,5.29-3.13,11.23-3.57,15.64-3.57h1.44c7.27,0,13.88-3.66,16.46-9.1A10.3,10.3,0,0,0,257,107.59C254.64,104.75,250.77,103.12,246.35,103.12Zm-196.82,25c4.41,0,10.35.44,15.63,3.57-.74-3.59-1.66-8.15-2.17-11.11a21.56,21.56,0,0,0-7.75-13.39,18.3,18.3,0,0,0-11.42-4.06c-4.42,0-8.3,1.63-10.63,4.47A10.3,10.3,0,0,0,31.63,119c2.57,5.45,9.19,9.1,16.46,9.1Z"/><path class="cls-3" d="M171.46,22.52A11.34,11.34,0,0,1,182.8,33.86h0A11.34,11.34,0,0,1,171.46,45.2h-8.1s-3.21,1.84,2.73,19.18c10.47,1,17.38,6.47,24.86,10.39,6.42,3.36,14.47,8.46,22.29,8.46a16.14,16.14,0,0,0,4.94-.75c10.31-3.3,16.89-4.85,28.86-4.85h1.61a37.52,37.52,0,0,1,13.56,72.5c2.48,3.91,2.68,12.52,1.23,17.28-3.16,10.42-12.79,17.43-22.7,17.43-19.89,0-25.11-17.15-25-25.87a74.77,74.77,0,0,1-50.1,50.75l-8.47,55.12H157a11.95,11.95,0,0,1-23.81,0H133l-8.47-55.12A74.77,74.77,0,0,1,74.38,159c.16,8.72-5.06,25.87-24.95,25.87-9.91,0-19.54-7-22.71-17.43-1.44-4.76-1.24-13.37,1.24-17.28a37.52,37.52,0,0,1,13.56-72.5h1.61c12,0,18.55,1.55,28.86,4.85a16.14,16.14,0,0,0,4.94.75c7.82,0,15.87-5.1,22.29-8.46,7.48-3.92,14.39-9.44,24.86-10.39C130,47,126.81,45.2,126.81,45.2h-8.1a11.34,11.34,0,0,1-11.34-11.34h0a11.34,11.34,0,0,1,11.34-11.34h52.75m50.45,114.17c5.5-5.83,13.09-6.58,18.73-6.58h1.44c15.11,0,24.79-13.66,16.44-23.8-2.77-3.37-7.31-5.2-12.17-5.2a20.29,20.29,0,0,0-12.68,4.51,23.49,23.49,0,0,0-8.47,14.6c-.92,5.41-3.29,16.46-3.29,16.46M48.09,130.12h1.44c5.64,0,13.23.75,18.73,6.58,0,0-2.37-11-3.29-16.46a23.46,23.46,0,0,0-8.48-14.6,20.24,20.24,0,0,0-12.67-4.51c-4.86,0-9.4,1.83-12.17,5.2-8.35,10.14,1.33,23.8,16.44,23.8m190.83,35.61c4.55,0,7-4,7.7-6.41.47-1.58.72-3.26,1.2-4.84.52-1.74,1.28-3.51,3.6-4.34-.36,0-.74,0-1.13,0-2.35,0-5.15-.23-7.77-.23a20.56,20.56,0,0,0-4.76.44,7.55,7.55,0,0,0-5,4.21c-.91,2.07-1.22,5.13-.13,7.12a7.87,7.87,0,0,0,6.33,4m-199-15.57c-.39,0-.77,0-1.14,0,2.33.83,3.09,2.6,3.61,4.34.47,1.58.73,3.26,1.2,4.84.72,2.37,3.15,6.41,7.7,6.41a7.87,7.87,0,0,0,6.33-4c1.09-2,.78-5-.13-7.12a7.55,7.55,0,0,0-5-4.21,20.62,20.62,0,0,0-4.76-.44c-2.62,0-5.43.23-7.77.23M171.46,18.52H118.71a15.34,15.34,0,1,0,0,30.68h5c-.09,1.85-.61,5.34-2.59,11.53-7.68,1.26-13.58,4.69-18.84,7.75-1.68,1-3.26,1.9-4.88,2.75-1,.5-2,1-3,1.6-5.53,3-11.8,6.4-17.45,6.4a11.71,11.71,0,0,1-3.7-.56c-10.92-3.49-17.85-5-30.1-5H41.47a41.92,41.92,0,0,0-29.3,12.24,41.39,41.39,0,0,0-4.73,53,41.45,41.45,0,0,0,15.38,13.35,33,33,0,0,0,.08,16.36c3.62,11.93,14.53,20.27,26.53,20.27,8.38,0,15.26-2.68,20.44-8a28.38,28.38,0,0,0,5.54-8.15,78.76,78.76,0,0,0,45.49,40l8.1,52.67.52,3.39h.42a15.94,15.94,0,0,0,30.29,0h.42l.52-3.39,8.09-52.67a78.74,78.74,0,0,0,45.5-40,28.38,28.38,0,0,0,5.54,8.15c5.18,5.28,12.06,8,20.44,8,12,0,22.91-8.34,26.53-20.27a33,33,0,0,0,.08-16.36,41.51,41.51,0,0,0,22.82-37.06A41,41,0,0,0,278,85.88a41.93,41.93,0,0,0-29.31-12.24H247c-12.25,0-19.18,1.55-30.08,5a11.92,11.92,0,0,1-3.72.56c-5.65,0-11.92-3.4-17.45-6.4-1-.56-2-1.1-3-1.6-1.61-.85-3.19-1.77-4.87-2.75-5.27-3.06-11.16-6.49-18.84-7.75-2-6.19-2.5-9.68-2.59-11.53h5a15.34,15.34,0,0,0,0-30.68Zm56.31,109.61c.53-2.61,1-5.27,1.38-7.23a19.25,19.25,0,0,1,7-12.16,16.22,16.22,0,0,1,10.16-3.62c3.76,0,7.16,1.4,9.08,3.74a8.26,8.26,0,0,1,1.3,9.3c-1.87,4-7.13,8-14.65,8h-1.44a36.18,36.18,0,0,0-12.87,2Zm-179.68-2c-7.52,0-12.78-4-14.65-8a8.27,8.27,0,0,1,1.29-9.3c1.93-2.34,5.33-3.74,9.09-3.74A16.24,16.24,0,0,1,54,108.74a19.34,19.34,0,0,1,7,12.16c.34,2,.85,4.62,1.38,7.23a36.25,36.25,0,0,0-12.87-2H48.09Zm190.83,35.61a4,4,0,0,1-2.83-1.95,5.19,5.19,0,0,1,.29-3.59,3.57,3.57,0,0,1,2.32-1.94,17,17,0,0,1,3.82-.32c.42,0,.85,0,1.29,0-.19.7-.34,1.39-.49,2.06s-.33,1.5-.53,2.15c0,0-1.11,3.57-3.87,3.57ZM46.36,154c.44,0,.87,0,1.29,0a17,17,0,0,1,3.82.32,3.57,3.57,0,0,1,2.32,1.94,5.12,5.12,0,0,1,.28,3.59,4,4,0,0,1-2.82,1.95c-2.76,0-3.86-3.53-3.87-3.57-.2-.65-.36-1.38-.53-2.15s-.3-1.36-.49-2.06Z"/></g><g id="Cork"><ellipse class="cls-4" cx="145.08" cy="66.03" rx="13.52" ry="2.37"/><polygon class="cls-4" points="158.61 66.03 131.56 66.03 129.47 2.08 160.7 2.08 158.61 66.03"/><ellipse class="cls-5" cx="145.08" cy="2.08" rx="15.62" ry="2.08"/></g><g id="botHighAndLow"><path class="cls-6" d="M244.07,147.13a29.09,29.09,0,0,0,34.67-24.42,2.6,2.6,0,0,0-1.75-3.08,2.52,2.52,0,0,0-3.08,1.75,24.88,24.88,0,0,1-9.34,16.44,24.51,24.51,0,0,1-19.17,4.49,2.56,2.56,0,0,0-3.07,1.75,2.51,2.51,0,0,0,1.74,3.07Z"/><path class="cls-6" d="M161.49,210.07c20.77-2.16,37-17,47.19-34.39a136.82,136.82,0,0,0,7.81-16,2.52,2.52,0,0,0-1.75-3.08,2.57,2.57,0,0,0-3.07,1.75c-7.27,17.3-18.21,34.16-35.65,42.49a44.74,44.74,0,0,1-14.53,4.18,2.57,2.57,0,0,0-2.5,2.5,2.51,2.51,0,0,0,2.5,2.5Z"/><path class="cls-6" d="M223.37,114.41c3-6.16,7.42-11.88,13.57-15.16a18.43,18.43,0,0,1,17-.41,13.29,13.29,0,0,1,6.39,6.48,2.59,2.59,0,0,0,3.08,1.75,2.51,2.51,0,0,0,1.74-3.08c-2.93-7.08-9.69-11.14-17.15-11.93-7.91-.83-15.48,2.93-21,8.43a43.27,43.27,0,0,0-8,11.39,2.56,2.56,0,0,0,.89,3.42,2.52,2.52,0,0,0,3.42-.89Z"/><path class="cls-6" d="M246.09,181.79c10-2.13,16.74-12.55,15.24-22.53a2.51,2.51,0,0,0-3.07-1.74,2.56,2.56,0,0,0-1.75,3.07c-.06-.39,0,.41,0,.4,0,.27,0,.54.05.81a14.26,14.26,0,0,1,0,1.46,11.52,11.52,0,0,1-.45,2.62,15,15,0,0,1-2.4,5.09,5.79,5.79,0,0,1-.67.88,14.53,14.53,0,0,1-1,1.09,13.6,13.6,0,0,1-2,1.76,13.24,13.24,0,0,1-5.26,2.27,2.5,2.5,0,0,0,1.33,4.82Z"/><path class="cls-6" d="M155,216.92q-1.94,13-4.28,25.94-1.16,6.4-2.42,12.79a38.06,38.06,0,0,1-1.17,5.18c-.39,1.13-.88,2.05-1.93,2.28-3.14.69-1.81,5.51,1.33,4.82,3.75-.82,5.31-4.68,6-8.06,1-4.57,1.8-9.16,2.64-13.75q2.55-13.89,4.63-27.87a2.57,2.57,0,0,0-1.75-3.07,2.51,2.51,0,0,0-3.07,1.74Z"/><path class="cls-6" d="M148.84,43.5l10.73-.08a77.46,77.46,0,0,0,10.22-.33,11.29,11.29,0,0,0,7.86-4.27,7.79,7.79,0,0,0,.85-8.1,2.52,2.52,0,0,0-3.42-.9,2.56,2.56,0,0,0-.9,3.42c.55,1.16-.43,2.79-1.42,3.59-1.78,1.42-4.41,1.49-6.57,1.54-5.78.12-11.57.09-17.35.13-3.21,0-3.22,5,0,5Z"/><path class="cls-7" d="M58.28,83.6a87.82,87.82,0,0,0-17.07-.67,32.75,32.75,0,0,0-15.8,5.42c-9,6.07-15.47,16.13-15,27.27a26.43,26.43,0,0,0,6.73,16.7c2.18,2.38,5.71-1.16,3.54-3.53-6.29-6.87-6.76-17.51-2.48-25.52A29.34,29.34,0,0,1,40.81,88c5.81-.57,11.68,0,17.47.63a2.51,2.51,0,0,0,2.5-2.5,2.57,2.57,0,0,0-2.5-2.5Z"/><path class="cls-7" d="M30.06,160.71a19.62,19.62,0,0,0,8.75,16.76,2.53,2.53,0,0,0,3.42-.9,2.57,2.57,0,0,0-.9-3.42l-.46-.32-.19-.13c.24.18-.23-.18-.27-.22l-.34-.29a15.75,15.75,0,0,1-1.42-1.41l-.36-.42-.15-.18c.19.24-.18-.24-.21-.28l-.26-.37a19.37,19.37,0,0,1-1.08-1.82c-.15-.29-.29-.6-.43-.9.11.22.07.18,0,0l-.19-.52a16.25,16.25,0,0,1-.57-1.92c-.08-.32-.15-.65-.2-1,0-.15,0-.29-.07-.44.07.52,0,0,0-.11a14.83,14.83,0,0,1-.06-2.11,2.52,2.52,0,0,0-2.5-2.5,2.55,2.55,0,0,0-2.5,2.5Z"/><path class="cls-7" d="M119.64,33.1c-.52,0,.4.11.14,0s.5.29.13.06.35.25.1.08-.1-.09.06.1c-.11-.13-.12-.45-.09-.11s0,0,0-.13-.2-.5,0-.12,0,0,0-.13c0,.23-.15.51,0,.16s-.28.59-.06.13-.17.15-.26.26c-.26.3.18-.1-.15.06.06,0,.66-.15.39-.11s.43,0,.42,0c.47,0,1,0,1.42,0l12.23.12a2.5,2.5,0,0,0,0-5l-8-.08-4,0a12,12,0,0,0-3.87.29,4.64,4.64,0,0,0-3,5.64,4.78,4.78,0,0,0,4.55,3.79,2.5,2.5,0,0,0,0-5Z"/><path class="cls-7" d="M117.44,70.45a32.82,32.82,0,0,0-17.75,9.34,2.5,2.5,0,0,0,3.54,3.54,28,28,0,0,1,15.54-8.06,2.53,2.53,0,0,0,1.75-3.07,2.55,2.55,0,0,0-3.08-1.75Z"/><path class="cls-7" d="M128.35,215.3l5,42.79a2.57,2.57,0,0,0,2.5,2.5,2.52,2.52,0,0,0,2.5-2.5l-5-42.79a2.57,2.57,0,0,0-2.5-2.5,2.52,2.52,0,0,0-2.5,2.5Z"/><path class="cls-7" d="M76.63,161.28c3.76,17.36,17.66,31.45,32.68,40A87.25,87.25,0,0,0,123,207.51a2.52,2.52,0,0,0,3.07-1.75,2.55,2.55,0,0,0-1.74-3.07C109.13,197.21,94.9,187,86.62,173a43.89,43.89,0,0,1-5.17-13c-.68-3.14-5.5-1.81-4.82,1.33Z"/></g></g></g></svg>