<svg xmlns="http://www.w3.org/2000/svg" xmlns:xlink="http://www.w3.org/1999/xlink" viewBox="0 0 485.49 566.93"><defs><style>.cls-1{fill:none;}.cls-2{fill:#231f20;}.cls-3{fill:#fff;}.cls-4{fill:url(#linear-gradient);}.cls-5{stroke:#231f20;stroke-miterlimit:10;}.cls-6{fill:url(#linear-gradient-2);}.cls-7{fill:#d7cde6;}.cls-8{clip-path:url(#clip-path);}.cls-9{fill:#fbcc0b;}</style><linearGradient id="linear-gradient" x1="122.45" y1="112.76" x2="370.86" y2="510.29" gradientUnits="userSpaceOnUse"><stop offset="0.61" stop-color="#fbcc0b"/><stop offset="1" stop-color="#ea6324"/></linearGradient><linearGradient id="linear-gradient-2" x1="75.98" y1="448.79" x2="119.6" y2="259.85" gradientUnits="userSpaceOnUse"><stop offset="0.48" stop-color="#9d64a9"/><stop offset="0.57" stop-color="#8e64aa"/><stop offset="0.71" stop-color="#7964ac"/><stop offset="0.86" stop-color="#6d64ad"/><stop offset="1" stop-color="#6964ad"/></linearGradient><clipPath id="clip-path"><rect id="SVGID" class="cls-1" x="134.33" y="267.75" width="109.86" height="117.88" transform="translate(68.56 -31.05) rotate(11.44)"/></clipPath></defs><g id="Layer_2" data-name="Layer 2"><g id="Layer_2-2" data-name="Layer 2"><g id="beeFull"><g id="stinger"><polygon points="304.5 494.59 404.05 440.49 401.13 553.75 304.5 494.59"/><path class="cls-2" d="M396.22,453.28,394,540.57,319.5,495l76.72-41.7m15.66-25.59L389.05,440.1l-76.71,41.7-22.83,12.4,22.16,13.57,74.46,45.59,22.16,13.57.67-26,2.25-87.29.67-26Z"/></g><g id="wings"><g id="leftWing"><path class="cls-3" d="M211.08,150c-29.47,0-56.35-24.26-63.91-57.69-8.73-38.56,11-76,44-83.47A53,53,0,0,1,203,7.5c29.47,0,56.34,24.26,63.91,57.7,4.17,18.44,2,37.2-6,52.84-8.28,16.08-21.78,27-38,30.63A53.62,53.62,0,0,1,211.08,150Z"/><path class="cls-2" d="M203,15c25.55,0,49.68,21.29,56.59,51.85,7.83,34.58-9.35,67.94-38.37,74.5a45.88,45.88,0,0,1-10.11,1.13c-25.55,0-49.68-21.29-56.6-51.85-7.82-34.58,9.36-67.93,38.38-74.5A45.88,45.88,0,0,1,203,15m0-15h0a60.54,60.54,0,0,0-13.42,1.5c-18.44,4.17-33.72,16.43-43,34.51-8.86,17.2-11.23,37.77-6.67,57.93,4,17.65,13.19,33.7,25.88,45.19,13.06,11.84,29.16,18.35,45.35,18.35A60.61,60.61,0,0,0,224.5,156c18.44-4.17,33.72-16.42,43-34.51,8.86-17.2,11.23-37.77,6.67-57.93-4-17.64-13.19-33.69-25.88-45.19C235.26,6.52,219.16,0,203,0Z"/></g><g id="rightWing"><path class="cls-3" d="M398.69,200a74.71,74.71,0,0,1-38.37-10.23c-24.25-14.49-45.2-44.41-24.41-81.06,13.09-23.08,45.89-47.6,80.88-47.6A62.17,62.17,0,0,1,453.6,72.63a58.21,58.21,0,0,1,23.57,38.73c2.59,16.38-1,33.62-10.4,49.86C452.71,185.52,427.26,200,398.69,200Z"/><path class="cls-2" d="M416.79,68.64a55,55,0,0,1,32.46,10.1c22.23,15.84,28.79,48,11,78.73-13.78,23.8-38.17,35.06-61.59,35.06a67.46,67.46,0,0,1-34.52-9.17c-23.44-14-39.23-40.08-21.73-70.92,12.72-22.42,44.13-43.8,74.35-43.8m0-15h0c-21.57,0-40,8.55-51.61,15.72-15.42,9.51-28.13,22.18-35.79,35.68-13,23-10.15,42.37-5.43,54.59,5.58,14.41,17.12,27.41,32.51,36.61a82.27,82.27,0,0,0,42.22,11.29,87.86,87.86,0,0,0,41.53-10.4,84.51,84.51,0,0,0,33-32.15c10.27-17.75,14.18-36.69,11.31-54.79A65.58,65.58,0,0,0,458,66.53a69.42,69.42,0,0,0-41.16-12.89Z"/></g></g><g id="body"><path class="cls-4" d="M282.47,532.66a281.1,281.1,0,0,1-57.08-6.29C173,515.44,123,481.93,84.75,432c-33.27-43.42-53.94-95.59-53.94-136.15C30.81,231,52.06,176,92.27,136.73c37.94-37,91.23-57.39,150.06-57.39,45.85,0,93.45,24.12,134,67.92a319.83,319.83,0,0,1,60.22,94.44c14.5,35.15,21,69.17,18.74,98.38-4.79,62.68-22.45,111.1-52.49,143.93C373.28,516.29,332.79,532.66,282.47,532.66Z"/><path class="cls-2" d="M242.33,86.84c114.16,0,213,154.17,205.51,252.66-9.51,124.3-70.16,185.66-165.37,185.66A272.71,272.71,0,0,1,226.92,519C115.17,495.74,38.31,372.5,38.31,295.86c0-131.35,89.86-209,204-209m0-15c-30.25,0-59,5.1-85.38,15.17A200.4,200.4,0,0,0,40.19,202.26C29,230.52,23.31,262,23.31,295.86c0,20.87,5.11,44.88,14.8,69.43A300.32,300.32,0,0,0,78.8,436.58c39.35,51.34,90.87,85.84,145.06,97.14a289.61,289.61,0,0,0,58.61,6.44c25.71,0,49.35-4.24,70.24-12.6a150.77,150.77,0,0,0,55.65-38.49c31.19-34.09,49.51-84,54.43-148.42,2.33-30.38-4.35-65.58-19.29-101.81a327.27,327.27,0,0,0-61.65-96.68C362,120.77,340.6,103.86,318.14,91.9c-25-13.31-50.49-20.06-75.81-20.06Z"/></g><path id="stripe" class="cls-5" d="M340.55,347.39c-33.3,39.95-97.28,70.29-178.79,48-22.31-6.11-89,15-72.53,32.93,75.11,81.84,213.5,57.49,262.73,23.42,107.22-74.2,91.62-260.1,25.18-299.78C377.14,151.92,412.77,260.73,340.55,347.39Z"/><g id="eyes"><g id="rightEye"><path d="M230.29,210.76l0-.31a29.82,29.82,0,0,1,.8-13.3,30.16,30.16,0,0,1,57.79,17.29A29.92,29.92,0,0,1,282.19,226l-.21.23Z"/><path class="cls-2" d="M259.92,176.13a29.67,29.67,0,0,1,28.43,38.16,29.34,29.34,0,0,1-6.53,11.37l-51.09-15.29a29.43,29.43,0,0,1,29.19-34.24m0-1A30.84,30.84,0,0,0,230.57,197a30.21,30.21,0,0,0-.83,13.52l.1.62.6.18,51.1,15.29.6.18.42-.47a30.22,30.22,0,0,0,6.74-11.75,30.67,30.67,0,0,0-29.38-39.45Z"/></g><g id="leftEye"><path d="M103.87,204.84a29.74,29.74,0,0,1-3.37-12.9A30.19,30.19,0,0,1,129.88,161h.78a30,30,0,0,1,27.42,42.44l-.13.29L104,205.12Z"/><path class="cls-2" d="M130.66,161.52a29.47,29.47,0,0,1,27,41.74l-53.31,1.35A29.25,29.25,0,0,1,101,191.93a29.66,29.66,0,0,1,28.89-30.4h.77m0-1h-.79A30.7,30.7,0,0,0,100,192a30.27,30.27,0,0,0,3.42,13.11l.29.56.63,0,53.31-1.35.63,0,.25-.57a30.56,30.56,0,0,0-27.87-43.15Z"/></g></g><g id="mouth"><path d="M195.36,246.09c-11.24,0-26.11-10.93-27.42-23.68a25.42,25.42,0,0,1,1-10L169,212l43.95.5.13.27c1.57,3.09,1.86,14,1.32,17.7-1.25,8.47-10,15.62-19,15.62Z"/><path class="cls-2" d="M169.39,212.5l43.27.5c1.53,3,1.79,13.87,1.27,17.4-1.21,8.18-9.63,15.19-18.56,15.19h0c-10.77,0-25.62-10.55-26.92-23.23a24.84,24.84,0,0,1,.95-9.86m-.74-1-.22.71a26.06,26.06,0,0,0-1,10.25c1.34,13,16.47,24.13,27.92,24.13,9.32,0,18.28-7.35,19.55-16.05.5-3.34.37-14.59-1.36-18l-.27-.54h-.61l-43.27-.49Z"/></g><g id="heart"><path class="cls-6" d="M80.52,449.84,79,449.07c-36-17.8-53.53-49.9-61.91-73.69-10-28.34-12.31-60.8-6.22-86.83,6.38-27.31,21.4-43.62,40.17-43.62,17,0,35.09,12.92,53.72,38.41,19-7.93,35.89-11.95,50.13-11.95,24.86,0,37,12,42.8,22,12.42,21.51,8.19,56.62-10.76,89.44-10.91,18.9-25.52,35.05-42.25,46.71-19,13.26-40.46,20.27-62,20.27Z"/><path class="cls-2" d="M51,252.43c14,0,31.35,11.56,51.12,40.2,21.5-9.6,38.93-13.74,52.73-13.74,86.66,0,29.45,163.46-72.21,163.46h-.35c-86.84-43-81-189.92-31.29-189.92m0-15c-22.5,0-40.24,18.47-47.48,49.41-6.4,27.37-4,61.4,6.46,91a150.33,150.33,0,0,0,24.3,44.41,122.52,122.52,0,0,0,41.36,33.51l3.12,1.54,3.47,0h.41c34.78,0,68.09-16.61,93.82-46.76a160.41,160.41,0,0,0,26.18-42.78c6.29-15.34,9.62-30.82,9.62-44.75,0-16.71-4.78-31-13.81-41.36-7.09-8.12-20.41-17.81-43.6-17.81-13.84,0-29.81,3.48-47.59,10.35C88.29,249.8,69.4,237.43,51,237.43Z"/></g><path id="heartShine" class="cls-7" d="M58.14,271.89c-10-.74-19.65,6-24.43,14.83s-5.37,19.47-3.94,29.45l.1.29c.14,4,4.69,6.72,8.6,6.06s7-3.84,8.86-7.35,2.79-7.42,4.23-11.12c2.79-7.16,8-13.89,15.35-16.15,2.26-.7,5.12-1.39,5.63-3.7a4.5,4.5,0,0,0-.22-2.35C70.49,276,64.26,272.33,58.14,271.89Z"/><g id="hand"><g class="cls-8"><path class="cls-9" d="M221.33,382.84a47.11,47.11,0,0,1-17-3.42c-18.49-7.21-37.91-23.37-47.22-39.32-4.17-7.12-4.06-15.23.3-22.82,7.9-13.78,29.45-24.57,49-24.57h.71c21.38.29,38.35,6.57,47.79,17.69,6.63,7.82,9.27,17.65,7.64,28.43-4,26.74-20.23,44-41.22,44Z"/><path class="cls-2" d="M206.42,300.21h.6c31.69.43,51.56,14.77,48.13,37.5-3.19,21-15.11,37.63-33.82,37.63A39.6,39.6,0,0,1,207,372.43c-15.71-6.12-34.55-20.85-43.47-36.11-10-17.08,19-36.11,42.87-36.11m0-15c-22.4,0-46.28,12.18-55.55,28.34-5.67,9.87-5.77,20.93-.27,30.34,10.09,17.27,31.05,34.75,51,42.51a54.35,54.35,0,0,0,19.75,3.94c24.92,0,44-19.77,48.65-50.39,2-13-1.27-24.88-9.34-34.4-10.86-12.79-29.83-20-53.41-20.34Z"/></g></g></g></g></g></svg>