<svg xmlns="http://www.w3.org/2000/svg" viewBox="0 0 768.03 717.55"><defs><style>.cls-1{fill:#808285;}.cls-2{fill:#231f20;}.cls-3{fill:#ea8e40;}</style></defs><g id="Layer_2" data-name="Layer 2"><g id="Layer_4" data-name="Layer 4"><path class="cls-1" d="M385.58,10a254.32,254.32,0,0,1,45.71,3.92C499.1,33.82,540.74,55.34,566.64,83L717.38,57.15l3.36-.58a32.23,32.23,0,0,1,5.49-.47,31.91,31.91,0,0,1,31.5,36.27L727.17,313.65a40.48,40.48,0,0,1-39.74,34.94l-68.14.6c12,19.55,17.92,53.52,2.12,72.89-19.69,36.7-27.07,76.06-43.35,76.06l-.77,0A253.88,253.88,0,0,1,418.33,636c-8.15,41.32-34.45,71.56-65.63,71.56-30.35,0-56.06-28.64-64.93-68.24a253.08,253.08,0,0,1-130-77.86v0c-160.24,0-159.3-181.15-137.24-264.16C32,254.2,71.5,201.16,133.74,164.44c.15-1.39.33-2.78.56-4.18,4-24.92,3.73-49.74,27.91-71.9C211,43.62,303.82,10,385.58,10m0-10C345.27,0,300,8.16,258.21,23c-41.46,14.68-77.95,35.29-102.75,58-23.3,21.35-26.59,45.57-29.49,67-.46,3.42-.94,7-1.49,10.39-28.56,17.47-54.12,39.45-74.13,63.8C30.8,245.91,17.13,271,10.83,294.74,2,327.87-1.67,367.57.7,403.66a263.58,263.58,0,0,0,10.63,60.26c6.43,20.83,15.56,39,27.14,54.09a130.46,130.46,0,0,0,47.94,38.84c19.36,9.16,41.83,14.06,66.87,14.58A263.22,263.22,0,0,0,279.5,647.55c11.41,42.13,40.26,70,73.2,70,17.78,0,35.14-8.37,48.87-23.58,11.83-13.09,20.5-30.33,25.27-50.12a261,261,0,0,0,92.74-52.23,266,266,0,0,0,64.48-84.4c9.09-2.88,14.4-11.72,16.37-15,4.54-7.55,8.56-17.37,13.21-28.75,4.57-11.16,9.73-23.78,16.16-35.89C638.24,416.76,642,402,640.73,385a97.16,97.16,0,0,0-5.68-25.9l52.47-.47A50.48,50.48,0,0,0,737.08,315L767.64,93.74A41.91,41.91,0,0,0,726.23,46.1a42.36,42.36,0,0,0-7.18.61l-3.37.58-145.54,25c-27.63-27.45-69.94-48.54-136-67.94l-.5-.15-.51-.09A264.89,264.89,0,0,0,385.58,0Z"/><path class="cls-2" d="M350.7,124C491,124,604.79,226.62,604.79,348.48c0,52.75-21.32,95.55-56.88,127.16C533,578.43,450.41,635.81,350.7,635.81S168.35,578.43,153.48,475.64C117.92,444,96.6,401.23,96.6,348.48,96.6,226.62,210.36,124,350.7,124m0-5A282.89,282.89,0,0,0,250,137.26,264,264,0,0,0,167.7,186.8c-23.81,21.17-42.53,45.74-55.64,73A203.18,203.18,0,0,0,91.6,348.48c0,26.39,5.24,51.15,15.56,73.6a173.39,173.39,0,0,0,41.64,56.07c7.6,49.68,31.23,91.17,68.4,120.07A195.7,195.7,0,0,0,278.39,630,247.44,247.44,0,0,0,423,630a195.7,195.7,0,0,0,61.19-31.79c37.18-28.9,60.8-70.39,68.4-120.07a173.25,173.25,0,0,0,41.64-56.07c10.33-22.45,15.56-47.21,15.56-73.6a203.18,203.18,0,0,0-20.46-88.65c-13.11-27.29-31.83-51.86-55.64-73a264,264,0,0,0-82.32-49.54A282.88,282.88,0,0,0,350.7,119Z"/><g id="skull"><path class="cls-3" d="M604.79,348.48c0,121.86-113.76,190.73-254.09,190.73S96.6,470.34,96.6,348.48,210.36,124,350.7,124,604.79,226.62,604.79,348.48Z"/><path class="cls-3" d="M550.3,441.6c0,124.08-89.37,194.21-199.6,194.21S151.09,565.68,151.09,441.6,240.46,213,350.7,213,550.3,317.51,550.3,441.6Z"/><path id="openMouth" class="cls-3" d="M255,548.86c0,6.45,42.83,8.41,95.66,8.41s95.65-2,95.65-8.41c0-3.68-.26-24.15-.74-27.71H255.79C255.3,524.71,255,545.18,255,548.86Z"/><ellipse class="cls-2" cx="252.73" cy="561.47" rx="28.6" ry="44.6" transform="translate(-281.65 255.59) rotate(-35.98)"/><ellipse class="cls-2" cx="452.66" cy="561.47" rx="44.6" ry="28.6" transform="translate(-267.63 597.91) rotate(-54.02)"/><ellipse class="cls-2" cx="458.65" cy="423.27" rx="89.04" ry="74.98" transform="translate(-70.07 754.9) rotate(-74.8)"/><ellipse class="cls-2" cx="245.55" cy="423.27" rx="74.98" ry="89.04" transform="translate(-102.39 79.19) rotate(-15.2)"/><rect class="cls-2" x="282.27" y="555.42" width="146.97" height="12.42"/></g></g></g></svg>