<svg xmlns="http://www.w3.org/2000/svg" xmlns:xlink="http://www.w3.org/1999/xlink" viewBox="0 0 813.38 732.44"><defs><style>.cls-1{fill:none;}.cls-2{fill:#ac8e95;}.cls-3{fill:#bf7436;}.cls-4{fill:#e88c73;}.cls-5{fill:#e97488;}.cls-6{fill:#ea8e40;}.cls-7{fill:#293052;}.cls-12,.cls-8{fill:#231f20;}.cls-9{clip-path:url(#clip-path);}.cls-10{clip-path:url(#clip-path-2);}.cls-11{clip-path:url(#clip-path-3);}.cls-12{stroke:#231f20;stroke-miterlimit:10;}.cls-13{fill:#ffdeae;}.cls-14{clip-path:url(#clip-path-4);}.cls-15{fill:#ffe0b2;}.cls-16{fill:#4b527d;}.cls-17{fill:#f7adbb;}.cls-18{clip-path:url(#clip-path-5);}.cls-19{fill:#f3e5d9;}.cls-20{clip-path:url(#clip-path-6);}.cls-21{fill:#f89a52;}.cls-22{fill:#fed363;}</style><clipPath id="clip-path" transform="translate(0 14.89)"><path class="cls-1" d="M554.4,85.11c-74.26,15-142.94,25.68-211.59,36.09C353.58,91.26,355.53,59.32,360.88,28c56.23-10.25,113.85,8.43,161.55,39.93,9.9,6.53,20.55,12,29.85,16.91"/></clipPath><clipPath id="clip-path-2" transform="translate(0 14.89)"><path class="cls-1" d="M70.27,214.68c33.53-23.39,70.4-41,111-45.91-37.76,14.93-61.58,30.29-77.59,62.41-8.71,17.48-11.88,33-11.47,61.71,30.72-70.42,59.74-87,98.74-102.5a168.11,168.11,0,0,0-34.21,82.83c15.07-33.82,49.25-54.36,81.65-72.28a330.32,330.32,0,0,1-33.66,69.37,297.91,297.91,0,0,1,53.77-37c16.59-8.86,27.71-13.77,48.58-27.1a105.33,105.33,0,0,1-10.42,29l77.17-34.48c-10.89,51.38-51,104.81-136.43,149.91,54.33-9.76,107.6-28.75,137.67-48.27,28.22-18.32,54.33-39.56,73.69-77.17,6.34,47.11-14.62,97.22-43.23,126.63,47.14,10.47,106.09,4.87,152.57-33.63C570.54,340.1,572.85,372,573,395.84c19.36-19.43,23.38-39.13,22.8-66.55-.57-26.91-17.38-67.21-34.51-91.26a275.66,275.66,0,0,0-37.68-42.9c-23.52-21.44-49.17-35.47-78.9-46.83a418.52,418.52,0,0,0-170.95-27C198.13,125,127.33,152.87,75.44,208Z"/></clipPath><clipPath id="clip-path-3" transform="translate(0 14.89)"><path class="cls-1" d="M176.06,377.42c-27,55.84-32.29,123.63-18.33,184.05-22-26.78-37.84-65.89-34.33-100.39s18.52-63.89,48.44-81.42Z"/></clipPath><clipPath id="clip-path-4" transform="translate(0 14.89)"><path class="cls-1" d="M570.7,405.83c-1.43,16.06-1.32,33.07,5.51,47.68,1.24,2.63,3.91,5.87,6.53,6.9,2.89-19.52,8.58-37.52,15.63-56,3.62-9.48,5.32-19.81,7.72-29.67a47.63,47.63,0,0,0,.37-19.51,5.47,5.47,0,0,0-10.15-1.65c-5.91,10.57-6.84,23.08-15.63,33.41-2,2.37-10.07,6.16-11.69,8.81-4,6.49,1.37,16.58,2.87,24"/></clipPath><clipPath id="clip-path-5" transform="translate(0 14.89)"><path class="cls-1" d="M134.49,161.33c1.78-16,4.1-32.3,10.83-47,6.9-15,18.18-27.76,31.1-38.08s27.48-18.4,42.26-25.82c5.63-2.83,11.31-5.58,17.08-8.12,6.81-3,37.33-15.33,44.72-16.14,19.48-2.13,39.11,10.68,46.7,28.73s2.57,50.27-9.35,65.81c-7.08.55-36.54.36-43.62.91-14.25,1.1-28.53,2.21-42.64,4.51A349.39,349.39,0,0,0,186.5,137a171.3,171.3,0,0,0-22.36,8.08c-10.27,4.73-19.66,11.14-29,17.52"/></clipPath><clipPath id="clip-path-6" transform="translate(0 14.89)"><path class="cls-1" d="M434.56,143.32c56.87,11.07,144.06-5.57,196.42,19.27,31.54,15,65.42,27.41,79.54,54.34,5.09,9.72,19.37,38.8,26.54,30.5,2.91-3.36,1.6-10.36,2.72-14.66,11-42.47,14.09-90.26,17.66-134,.72-8.81,2.82-17.23-1.29-25-6-11.42-16.8-16.3-29.67-15.59S684.16,62.35,671.79,66c-13,3.79-19.07,4-32.44,6.22C539.28,88.63,438,106.46,337.93,122.91c34.68,6.61,58.74,9.89,88.81,17.8Z"/></clipPath></defs><g id="Layer_2" data-name="Layer 2"><g id="Layer_3" data-name="Layer 3"><path class="cls-2" d="M603.32,160.26c16.26,83-105,153.1-234.51,153.1S120.87,243.74,134.3,160.26c4-24.92,3.73-49.74,27.91-71.9C220.46,35,341.26-2.56,431.29,13.92,551.49,49.2,589.46,89.55,603.32,160.26Z" transform="translate(0 14.89)"/><path class="cls-3" d="M757.73,92.37a31.89,31.89,0,0,0-37-35.8l-3.36.58L314.12,126.34l141,224.31,232.35-2.06a40.48,40.48,0,0,0,39.74-34.94Z" transform="translate(0 14.89)"/><path class="cls-4" d="M606.18,335c-3.78-1.44-7.31,0-10.62,3.37-25-113.63-126.22-198.68-247.35-198.68C208.34,139.73,95,253.12,95,393S208.34,646.25,348.21,646.25c102.37,0,190.54-60.74,230.47-148.14,16.82,1.27,24.12-38.76,44.12-76C644.27,395.75,625.57,342.45,606.18,335Z" transform="translate(0 14.89)"/><g id="Eyes"><path d="M400.39,403.49l95.28-33.64c9.86,13.7,15.93,32.35,15.93,52.92,0,42-25.31,76.09-56.52,76.09s-56.52-34.07-56.52-76.09A101.69,101.69,0,0,1,400.39,403.49Z" transform="translate(0 14.89)"/><path d="M301.72,403.49l-95.28-33.64c-9.85,13.7-15.93,32.35-15.93,52.92,0,42,25.31,76.09,56.53,76.09s56.52-34.07,56.52-76.09A100.88,100.88,0,0,0,301.72,403.49Z" transform="translate(0 14.89)"/></g><path id="openMouth" d="M255.17,548.86c0,48,42.82,86.95,95.65,86.95s95.65-38.93,95.65-86.95a79.7,79.7,0,0,0-.74-10.87H255.91A79.7,79.7,0,0,0,255.17,548.86Z" transform="translate(0 14.89)"/><path class="cls-5" d="M420.94,608.89c0,54.49-30.56,98.66-68.24,98.66s-68.25-44.17-68.25-98.66,28.88-54.9,68.25-35.12C390.08,553.2,420.94,554.39,420.94,608.89Z" transform="translate(0 14.89)"/><path id="openMouth-2" data-name="openMouth" class="cls-6" d="M255,548.86c0,6.45,42.83,8.41,95.66,8.41s95.65-2,95.65-8.41a81.33,81.33,0,0,0-.74-10.87H255.79A79.7,79.7,0,0,0,255,548.86Z" transform="translate(0 14.89)"/><path class="cls-7" d="M20.49,297.31C41.39,218.68,155.72,107,330.74,121.59,490.43,134.89,596,232,595.76,346.17c0,15.92-7.46,33.66-25.12,52.17-12.82-28.49-19.94-52.17-25.09-70.24-46.28,29.26-90.47,34.42-140,23.74-58.69,41.15-141.23,53.4-229.06,26.1-41.53,84.27-25.94,128.76-18.72,183.53C-2.51,561.47-1.57,380.32,20.49,297.31Z" transform="translate(0 14.89)"/><path class="cls-8" d="M609.65,358.57c-3,13.62-6,27.25-9.95,40.62q-3,10-6.75,19.63c-2.47,6.27-5.09,12.49-7,18.95-2.15,7.36-3.17,14.94-2,22.56.38,2.58,4.18,2.18,4.82,0l18.8-63.93,5.33-18.13-4.57.6A15.77,15.77,0,0,1,610,385.5c.1,3.21,5.06,3.23,5,0l-.18-9.82-4.91.66,2,10.07,4.82-1.33-1.86-5.95-1-3.2a7,7,0,0,0-1.22-2.94,2.86,2.86,0,0,0-4.53.65,3.79,3.79,0,0,0,.63,4.28,3.36,3.36,0,0,0,4.81-.31c1.22-1.32,1.31-3.17,1.18-4.86-.17-2.1-.38-4.2-.53-6.3,0-.14,0-2,.05-2s-.25.35-.34.33c-.65-.19-1.19-.13-1.24-1.24l1.83-2.41-4.43.62a2.51,2.51,0,0,0-1.84,2.41,161.93,161.93,0,0,0,4.05,28.91c.73,3.13,5.55,1.8,4.82-1.33a154.59,154.59,0,0,1-3.87-27.58l-1.84,2.41,4.44-.62a2.49,2.49,0,0,0,1.84-2.41,3.85,3.85,0,0,0-3.92-3.71,4.49,4.49,0,0,0-4.37,3.47c-.57,2.06-.07,4.42.1,6.51.1,1.13.22,2.26.29,3.39,0,.23,0,.81,0,.89-.1.31-.11.39,0,.23a1.54,1.54,0,0,1,1-.54l1.27.34a1.68,1.68,0,0,1,.67,1.07c0,.19,0,.21,0,.07,0-.7-.31-.19-1,1.51l-1.26.34-.88-.22-1.14-1.5,3.43,11c1,3.09,5.43,1.81,4.82-1.33l-2-10.07c-.54-2.78-5-2.12-4.91.67l.18,9.82h5a21.66,21.66,0,0,0-2.34-9.16c-1-2-4-1.36-4.57.6l-18.8,63.93L583.93,459h4.82c-1.94-13,3.84-25.78,8.51-37.57a292.37,292.37,0,0,0,12-38.81c1.83-7.55,3.5-15.13,5.16-22.72.69-3.14-4.13-4.48-4.82-1.33Z" transform="translate(0 14.89)"/><g class="cls-9"><rect class="cls-8" x="329.55" width="249.23" height="185.14"/></g><g class="cls-10"><rect class="cls-8" x="10" y="108.92" width="620.98" height="333.33"/></g><g class="cls-11"><rect class="cls-12" x="93.56" y="373.67" width="107.02" height="228.12"/></g><path class="cls-13" d="M614.33,372l3,18.88a2.51,2.51,0,0,0,3.07,1.75,2.57,2.57,0,0,0,1.75-3.08l-3-18.88a2.5,2.5,0,0,0-4.82,1.33Z" transform="translate(0 14.89)"/><g class="cls-14"><rect class="cls-15" x="554.65" y="344.18" width="60.47" height="144.79"/></g><path class="cls-15" d="M573.62,431.59c-2.34-49.77-16-72.84-28.07-103.49-29.38,18.37-62.68,29.49-97.31,28.38-10.9-.35-32-1.49-42.73-4.64-11.67,7.63-22.72,14.16-31,18-32,14.82-59.29,20.36-103.77,22.69h0l31,10.95a100.88,100.88,0,0,1,1.84,19.28c0,42-25.31,76.09-56.52,76.09s-56.53-34.07-56.53-76.09A96.25,96.25,0,0,1,198.42,384h0c-7.9-2-15-4-22-6-7.87,14.85-15.64,32.4-20.22,53.74-3.31,15.39-8,25.1-8.69,37.11-.89,14.42,1.91,28.76,3,43.16,1.15,15.2,1.12,35.54,7.18,49.52,3.66,8.44,8.86,11.17,15.19,17.84,23,24.27,58.27,44.22,90.34,53.65a113.73,113.73,0,0,0,24,4.15,139.37,139.37,0,0,1-2.81-25.61c-18.07-15.82-29.31-38-29.31-62.64a79.7,79.7,0,0,1,.74-10.87H445.73a79.7,79.7,0,0,1,.74,10.87c0,22.84-9.69,43.62-25.54,59.14,0,.3,0,.59,0,.89,0,1.14,0,2.27-.05,3.4,52.75-21.89,96.45-71,110-92.22,22.41-31.91,38.25-65.93,37.77-85.71C569.54,424.17,574.1,441.8,573.62,431.59ZM455.08,498.86c-31.22,0-56.52-34.07-56.52-76.09a101.69,101.69,0,0,1,1.83-19.28l95.28-33.64c9.86,13.7,15.93,32.35,15.93,52.92C511.6,464.79,486.29,498.86,455.08,498.86Z" transform="translate(0 14.89)"/><path d="M436.52,580.9c-2.51,8.2-12.45,14.54-15.58,22.53a2.47,2.47,0,0,0-.1.29c.06,1.66.1,3.39.1,5.17a138.26,138.26,0,0,1-4.11,33.78c1,.76,3,1.49,3.61,1.91a2.42,2.42,0,0,0,1.92.23,6.84,6.84,0,0,0,4.58-4.55c.76-2.11,10.13-3.52,9.81-5.75-1.18-8.13-3.94-35.82,0-51.11Z" transform="translate(0 14.89)"/><path class="cls-16" d="M220.38,365.94c-39.95-12.05-79.07-29.26-110.67-56.52,11.06,13.05,23.55,28,23.55,28,9.37,10.68,18.71,18.21,28.16,27.29,3.32,3.19,7.14,4.39,10.86,7.09a56.46,56.46,0,0,0,13.22,6.63c47.47,18.12,101,16.89,149.69,2.22C296.53,384.26,257.55,377.15,220.38,365.94Z" transform="translate(0 14.89)"/><path class="cls-16" d="M44.46,278.26c2.41-8.7,5.07-17.59,10.63-24.7C35,269.68,21.14,293,15.57,318.15,15,321,10,340.89,10,340.89c-7,36.54,1.15,61.66,20.83,93.25-10.79-31.3-6.49-65.65,0-98.13Q36.54,306.9,44.46,278.26Z" transform="translate(0 14.89)"/><path class="cls-16" d="M59,360c-5.38,19.29-8,39.67-4.68,59.41s13.16,38.86,29.17,50.89C67.87,435,60.88,392.55,60.94,353.22Z" transform="translate(0 14.89)"/><path class="cls-16" d="M107.34,417.34c-4.21,12.23-4.29,18-4.2,27.24a28.15,28.15,0,0,0,6.26,17.83c1-7.9,1.17-16.77,1.38-24.73.22-8.12-1.07-17-1.07-26.7Z" transform="translate(0 14.89)"/><path class="cls-16" d="M214.1,335c4.45-24.62,20.39-45.41,36.3-64.72A174.83,174.83,0,0,0,198,326.9l16,8Z" transform="translate(0 14.89)"/><path class="cls-17" d="M346.16,701.4a25.3,25.3,0,0,0,9.9,0,80.1,80.1,0,0,0,18.42-7A75.52,75.52,0,0,0,390.08,683a55,55,0,0,0,10.88-16c6.85-16.6,13-40,11.63-57.91-.53-6.73-1.71-13.58-5.1-19.41-5.06-8.7-14.86-14.21-24.91-14.92s-17.67,3.71-25.41,10.16l-5.46,11.67c-4.46-28.87-22.25-34.7-40.58-32.39-15.89,5.63-24.94,20.23-22.07,55.79C293,668.79,327.52,701.75,346.16,701.4Z" transform="translate(0 14.89)"/><g class="cls-18"><rect class="cls-19" x="103.12" y="24.89" width="247.54" height="174.48"/></g><g class="cls-20"><rect class="cls-21" x="284.45" y="54.59" width="528.92" height="230.57"/></g><path class="cls-8" d="M385.58,10a254.32,254.32,0,0,1,45.71,3.92C499.1,33.82,540.74,55.34,566.64,83L717.38,57.15l3.36-.58a32.23,32.23,0,0,1,5.49-.47,31.91,31.91,0,0,1,31.5,36.27L727.17,313.65a40.48,40.48,0,0,1-39.74,34.94l-68.14.6c12,19.55,17.92,53.52,2.12,72.89-19.69,36.7-27.07,76.06-43.35,76.06l-.77,0A253.88,253.88,0,0,1,418.33,636c-8.15,41.32-34.45,71.56-65.63,71.56-30.35,0-56.06-28.64-64.93-68.24a253.08,253.08,0,0,1-130-77.86v0c-160.24,0-159.3-181.15-137.24-264.16C32,254.2,71.5,201.16,133.74,164.44c.15-1.39.33-2.78.56-4.18,4-24.92,3.73-49.74,27.91-71.9C211,43.62,303.82,10,385.58,10m0-10C345.27,0,300,8.16,258.21,23c-41.46,14.68-77.95,35.29-102.75,58-23.3,21.35-26.59,45.57-29.49,67-.46,3.42-.94,7-1.49,10.39-28.56,17.47-54.12,39.45-74.13,63.8C30.8,245.91,17.13,271,10.83,294.74,2,327.87-1.67,367.57.7,403.66a263.58,263.58,0,0,0,10.63,60.26c6.43,20.83,15.56,39,27.14,54.09a130.46,130.46,0,0,0,47.94,38.84c19.36,9.16,41.83,14.06,66.87,14.58A263.22,263.22,0,0,0,279.5,647.55c11.41,42.13,40.26,70,73.2,70,17.78,0,35.14-8.37,48.87-23.58,11.83-13.09,20.5-30.33,25.27-50.12a261,261,0,0,0,92.74-52.23,266,266,0,0,0,64.48-84.4c9.09-2.88,14.4-11.72,16.37-15,4.54-7.55,8.56-17.37,13.21-28.75,4.57-11.16,9.73-23.78,16.16-35.89C638.24,416.76,642,402,640.73,385a97.16,97.16,0,0,0-5.68-25.9l52.47-.47A50.48,50.48,0,0,0,737.08,315L767.64,93.74A41.91,41.91,0,0,0,726.23,46.1a42.36,42.36,0,0,0-7.18.61l-3.37.58-145.54,25c-27.63-27.45-69.94-48.54-136-67.94l-.5-.15-.51-.09A264.89,264.89,0,0,0,385.58,0Z" transform="translate(0 14.89)"/><path class="cls-22" d="M350.7,557.27c52.82,0,95.65-2,95.65-8.41,0-.46,0-.91,0-1.37-3-4-14.08-3.1-19.53-3.16-7.75-.08-10.47-.62-18.07-.51-34.38.5-69,1.78-103.42,1.38-5.56-.07-11.12-.13-16.66-.39a299.81,299.81,0,0,1-33.18-4,77.61,77.61,0,0,0-.42,8.1C255,555.31,297.87,557.27,350.7,557.27Z" transform="translate(0 14.89)"/></g></g></svg>