<svg xmlns="http://www.w3.org/2000/svg" viewBox="0 0 768.03 717.55"><defs><style>.cls-1{fill:#ac8e95;}.cls-2{fill:#bf7436;}.cls-3{fill:#231f20;}.cls-4{fill:#e88c73;}.cls-5{fill:#e97488;}.cls-6{fill:#ea8e40;}.cls-7{fill:#293052;}</style></defs><g id="Layer_2" data-name="Layer 2"><g id="Layer_3" data-name="Layer 3"><path class="cls-1" d="M603.32,160.26c16.26,83-105,153.1-234.51,153.1S120.87,243.74,134.3,160.26c4-24.92,3.73-49.74,27.91-71.9C220.46,35,341.26-2.56,431.29,13.92,551.49,49.2,589.46,89.55,603.32,160.26Z"/><path class="cls-2" d="M757.73,92.37a31.89,31.89,0,0,0-37-35.8l-3.36.58L314.12,126.34l141,224.31,232.35-2.06a40.48,40.48,0,0,0,39.74-34.94Z"/><path class="cls-3" d="M385.58,10a254.32,254.32,0,0,1,45.71,3.92C499.1,33.82,540.74,55.34,566.64,83L717.38,57.15l3.36-.58a32.23,32.23,0,0,1,5.49-.47,31.91,31.91,0,0,1,31.5,36.27L727.17,313.65a40.48,40.48,0,0,1-39.74,34.94l-68.14.6c12,19.55,17.92,53.52,2.12,72.89-19.69,36.7-27.07,76.06-43.35,76.06l-.77,0A253.88,253.88,0,0,1,418.33,636c-8.15,41.32-34.45,71.56-65.63,71.56-30.35,0-56.06-28.64-64.93-68.24a253.08,253.08,0,0,1-130-77.86v0c-160.24,0-159.3-181.15-137.24-264.16C32,254.2,71.5,201.16,133.74,164.44c.15-1.39.33-2.78.56-4.18,4-24.92,3.73-49.74,27.91-71.9C211,43.62,303.82,10,385.58,10m0-10C345.27,0,300,8.16,258.21,23c-41.46,14.68-77.95,35.29-102.75,58-23.3,21.35-26.59,45.57-29.49,67-.46,3.42-.94,7-1.49,10.39-28.56,17.47-54.12,39.45-74.13,63.8C30.8,245.91,17.13,271,10.83,294.74,2,327.87-1.67,367.57.7,403.66a263.58,263.58,0,0,0,10.63,60.26c6.43,20.83,15.56,39,27.14,54.09a130.46,130.46,0,0,0,47.94,38.84c19.36,9.16,41.83,14.06,66.87,14.58A263.22,263.22,0,0,0,279.5,647.55c11.41,42.13,40.26,70,73.2,70,17.78,0,35.14-8.37,48.87-23.58,11.83-13.09,20.5-30.33,25.27-50.12a261,261,0,0,0,92.74-52.23,266,266,0,0,0,64.48-84.4c9.09-2.88,14.4-11.72,16.37-15,4.54-7.55,8.56-17.37,13.21-28.75,4.57-11.16,9.73-23.78,16.16-35.89C638.24,416.76,642,402,640.73,385a97.16,97.16,0,0,0-5.68-25.9l52.47-.47A50.48,50.48,0,0,0,737.08,315L767.64,93.74A41.91,41.91,0,0,0,726.23,46.1a42.36,42.36,0,0,0-7.18.61l-3.37.58-145.54,25c-27.63-27.45-69.94-48.54-136-67.94l-.5-.15-.51-.09A264.89,264.89,0,0,0,385.58,0Z"/><path class="cls-4" d="M604.79,335c-3.78-1.44-7.31,0-10.63,3.37C569.2,224.78,468,139.73,346.82,139.73,207,139.73,93.56,253.12,93.56,393S207,646.25,346.82,646.25c102.36,0,190.54-60.74,230.47-148.14,16.82,1.27,24.12-38.76,44.12-76C642.88,395.75,624.18,342.45,604.79,335Z"/><g id="Eyes"><path d="M400.39,403.49l95.28-33.64c9.86,13.7,15.93,32.35,15.93,52.92,0,42-25.31,76.09-56.52,76.09s-56.52-34.07-56.52-76.09A101.69,101.69,0,0,1,400.39,403.49Z"/><path d="M301.72,403.49l-95.28-33.64c-9.85,13.7-15.93,32.35-15.93,52.92,0,42,25.31,76.09,56.53,76.09s56.52-34.07,56.52-76.09A100.88,100.88,0,0,0,301.72,403.49Z"/></g><path id="openMouth" d="M255.17,548.86c0,48,42.82,86.95,95.65,86.95s95.65-38.93,95.65-86.95a79.7,79.7,0,0,0-.74-10.87H255.91A79.7,79.7,0,0,0,255.17,548.86Z"/><path class="cls-5" d="M420.94,608.89c0,54.49-30.56,98.66-68.24,98.66s-68.25-44.17-68.25-98.66,28.88-54.9,68.25-35.12C390.08,553.2,420.94,554.39,420.94,608.89Z"/><path id="openMouth-2" data-name="openMouth" class="cls-6" d="M255,548.86c0,6.45,42.83,8.41,95.66,8.41s95.65-2,95.65-8.41a81.33,81.33,0,0,0-.74-10.87H255.79A79.7,79.7,0,0,0,255,548.86Z"/><path class="cls-7" d="M20.49,297.31C41.39,218.68,155.72,107,330.74,121.59,490.43,134.89,596,232,595.76,346.17c0,15.92-7.46,33.66-25.12,52.17-12.82-28.49-19.94-52.17-25.09-70.24-46.28,29.26-90.47,34.42-140,23.74-58.69,41.15-141.23,53.4-229.06,26.1-41.53,84.27-25.94,128.76-18.72,183.53C-2.51,561.47-1.57,380.32,20.49,297.31Z"/></g></g></svg>